<svg xmlns="http://www.w3.org/2000/svg" viewBox="0 0 1200 620" width="1200" height="620" role="img" aria-labelledby="overview-title overview-description">
  <title id="overview-title">Public architecture overview</title>
  <desc id="overview-description">Role and trust flow overview</desc>
  <defs>
    <marker id="arrow" viewBox="0 0 10 10" refX="9" refY="5" markerWidth="7" markerHeight="7" orient="auto-start-reverse">
      <path d="M 0 0 L 10 5 L 0 10 z" fill="#64748b"/>
    </marker>
  </defs>

  <rect x="0" y="0" width="1200" height="620" rx="24" fill="#f8fafc" stroke="#cbd5e1" stroke-width="2"/>
  <rect x="460" y="125" width="700" height="410" rx="24" fill="#ffffff" stroke="#cbd5e1" stroke-width="2" stroke-dasharray="8 8"/>
  <text x="485" y="155" fill="#475569" font-family="sans-serif" font-size="18" font-weight="600">Home LAN</text>

  <g fill="none" stroke="#64748b" stroke-width="3" marker-end="url(#arrow)">
    <path d="M 200 268 H 245"/>
    <path d="M 435 250 H 500"/>
    <path d="M 630 175 V 113 H 435"/>
    <path d="M 760 218 H 930"/>
    <path d="M 630 261 V 370"/>
    <path d="M 700 261 L 930 390"/>
    <path d="M 1035 261 V 370"/>
    <path d="M 270 520 H 460"/>
  </g>

  <text x="500" y="98" fill="#475569" font-family="sans-serif" font-size="14">Encrypted DNS</text>
  <text x="790" y="320" fill="#475569" font-family="sans-serif" font-size="14">Encrypted backups</text>
  <text x="275" y="505" fill="#475569" font-family="sans-serif" font-size="14">Remote access</text>

  <g>
  <rect x="40" y="225" width="160" height="86" rx="16" fill="#eff6ff" stroke="#60a5fa" stroke-width="3"/>
  <text x="120" y="265" text-anchor="middle" fill="#0f172a" font-family="sans-serif" font-size="18" font-weight="600">Internet</text>
  <!-- role-only -->
</g>
<g>
  <rect x="245" y="70" width="190" height="86" rx="16" fill="#eff6ff" stroke="#60a5fa" stroke-width="3"/>
  <text x="340" y="110" text-anchor="middle" fill="#0f172a" font-family="sans-serif" font-size="18" font-weight="600">Upstream DNS</text>
  <!-- role-only -->
</g>
<g>
  <rect x="245" y="225" width="190" height="86" rx="16" fill="#f8fafc" stroke="#64748b" stroke-width="3"/>
  <text x="340" y="265" text-anchor="middle" fill="#0f172a" font-family="sans-serif" font-size="18" font-weight="600">Router</text>
  <!-- role-only -->
</g>
<g>
  <rect x="500" y="175" width="260" height="86" rx="16" fill="#ecfdf5" stroke="#10b981" stroke-width="3"/>
  <text x="630" y="215" text-anchor="middle" fill="#0f172a" font-family="sans-serif" font-size="18" font-weight="600">DNS + DHCP appliance</text>
  <text x="630" y="241" text-anchor="middle" fill="#475569" font-family="sans-serif" font-size="15">Critical roles</text>
</g>
<g>
  <rect x="500" y="370" width="260" height="86" rx="16" fill="#fff7ed" stroke="#f97316" stroke-width="3"/>
  <text x="630" y="410" text-anchor="middle" fill="#0f172a" font-family="sans-serif" font-size="18" font-weight="600">Isolated guest services</text>
  <!-- role-only -->
</g>
<g>
  <rect x="930" y="175" width="210" height="86" rx="16" fill="#f5f3ff" stroke="#8b5cf6" stroke-width="3"/>
  <text x="1035" y="215" text-anchor="middle" fill="#0f172a" font-family="sans-serif" font-size="18" font-weight="600">Workstation</text>
  <!-- role-only -->
</g>
<g>
  <rect x="930" y="370" width="210" height="86" rx="16" fill="#f5f3ff" stroke="#8b5cf6" stroke-width="3"/>
  <text x="1035" y="410" text-anchor="middle" fill="#0f172a" font-family="sans-serif" font-size="18" font-weight="600">Backup target</text>
  <!-- role-only -->
</g>
<g>
  <rect x="40" y="500" width="230" height="86" rx="16" fill="#eff6ff" stroke="#60a5fa" stroke-width="3"/>
  <text x="155" y="540" text-anchor="middle" fill="#0f172a" font-family="sans-serif" font-size="18" font-weight="600">VPN administration</text>
  <!-- role-only -->
</g>

</svg>
