<svg xmlns="http://www.w3.org/2000/svg" viewBox="0 0 1160 590" width="1160" height="590" role="img" aria-labelledby="overview-title overview-description">
  <title id="overview-title">Public architecture overview</title>
  <desc id="overview-description">Role and trust flow overview</desc>
  <defs>
    <marker id="arrow" viewBox="0 0 10 10" refX="9" refY="5" markerWidth="7" markerHeight="7" orient="auto-start-reverse">
      <path d="M 0 0 L 10 5 L 0 10 z" fill="#64748b"/>
    </marker>
  </defs>

  <rect x="460" y="115" width="680" height="380" rx="24" fill="#ffffff" stroke="#cbd5e1" stroke-width="2" stroke-dasharray="8 8"/>
  <text x="485" y="145" fill="#475569" font-family="sans-serif" font-size="18" font-weight="600">Home LAN</text>

  <g fill="none" stroke="#64748b" stroke-width="3" marker-end="url(#arrow)">
    <path d="M 190 258 H 245"/>
    <path d="M 425 258 H 500"/>
    <path d="M 618 165 V 113 H 425"/>
    <path d="M 735 208 H 900"/>
    <path d="M 618 251 V 350"/>
    <path d="M 735 393 H 900"/>
    <path d="M 220 498 H 780 V 251 H 900"/>
  </g>

  <text x="500" y="98" fill="#475569" font-family="sans-serif" font-size="14">Encrypted DNS</text>
  <text x="760" y="382" fill="#475569" font-family="sans-serif" font-size="14">Encrypted backups</text>
  <text x="700" y="488" fill="#475569" font-family="sans-serif" font-size="14">Remote access</text>

  <g>
  <rect x="40" y="215" width="150" height="86" rx="16" fill="#eff6ff" stroke="#60a5fa" stroke-width="3"/>
  <text x="115" y="255" text-anchor="middle" fill="#0f172a" font-family="sans-serif" font-size="18" font-weight="600">Internet</text>
  <!-- role-only -->
</g>
<g>
  <rect x="245" y="70" width="180" height="86" rx="16" fill="#eff6ff" stroke="#60a5fa" stroke-width="3"/>
  <text x="335" y="110" text-anchor="middle" fill="#0f172a" font-family="sans-serif" font-size="18" font-weight="600">Upstream DNS</text>
  <!-- role-only -->
</g>
<g>
  <rect x="245" y="215" width="180" height="86" rx="16" fill="#f8fafc" stroke="#64748b" stroke-width="3"/>
  <text x="335" y="255" text-anchor="middle" fill="#0f172a" font-family="sans-serif" font-size="18" font-weight="600">Router</text>
  <!-- role-only -->
</g>
<g>
  <rect x="500" y="165" width="235" height="86" rx="16" fill="#ecfdf5" stroke="#10b981" stroke-width="3"/>
  <text x="617" y="205" text-anchor="middle" fill="#0f172a" font-family="sans-serif" font-size="18" font-weight="600">DNS + DHCP appliance</text>
  <text x="617" y="231" text-anchor="middle" fill="#475569" font-family="sans-serif" font-size="15">Critical roles</text>
</g>
<g>
  <rect x="500" y="350" width="235" height="86" rx="16" fill="#fff7ed" stroke="#f97316" stroke-width="3"/>
  <text x="617" y="390" text-anchor="middle" fill="#0f172a" font-family="sans-serif" font-size="18" font-weight="600">Isolated guest services</text>
  <!-- role-only -->
</g>
<g>
  <rect x="900" y="165" width="190" height="86" rx="16" fill="#f5f3ff" stroke="#8b5cf6" stroke-width="3"/>
  <text x="995" y="205" text-anchor="middle" fill="#0f172a" font-family="sans-serif" font-size="18" font-weight="600">Workstation</text>
  <!-- role-only -->
</g>
<g>
  <rect x="900" y="350" width="190" height="86" rx="16" fill="#f5f3ff" stroke="#8b5cf6" stroke-width="3"/>
  <text x="995" y="390" text-anchor="middle" fill="#0f172a" font-family="sans-serif" font-size="18" font-weight="600">Backup target</text>
  <!-- role-only -->
</g>
<g>
  <rect x="40" y="455" width="180" height="86" rx="16" fill="#eff6ff" stroke="#60a5fa" stroke-width="3"/>
  <text x="130" y="495" text-anchor="middle" fill="#0f172a" font-family="sans-serif" font-size="18" font-weight="600">VPN administration</text>
  <!-- role-only -->
</g>

</svg>
